<svg id="Layer_1" data-name="Layer 1" xmlns="http://www.w3.org/2000/svg" viewBox="0 0 377 533.9"><defs><style>.cls-1,.cls-2,.cls-3,.cls-4{fill:none;stroke-linecap:round;}.cls-1,.cls-2{stroke:#0000d5;}.cls-1,.cls-3{stroke-width:15.42px;}.cls-2,.cls-4{stroke-width:12.5px;}.cls-3,.cls-4{stroke:#000;}</style></defs><title>DHCP Logo</title><path d="M438.11,386.78c-5-6.27-12.84-9.53-20.84-9.53H405.19v-83.8a8.38,8.38,0,0,0-8.38-8.38H187.32V212.75a96,96,0,0,0,79.94,16.34l3.4,3.4c6.93,6.93,17.88,9.07,26.25,3.95A21,21,0,0,0,301,203.53l-47.68-47.68a20.94,20.94,0,0,0,5.9-29,20.93,20.93,0,0,0-32.3-3.23,21,21,0,0,0-2.68,3.27L176.59,79.18a21.44,21.44,0,0,0-29.66,0,21,21,0,0,0,0,29.63l0,0,4.19,4.19a93.9,93.9,0,0,0,20.27,84.64,8.3,8.3,0,0,0-.83,3.6v83.8h-41.9a8.38,8.38,0,0,0-8.38,8.38v83.8h-15.5c-16.11,0-30.92,10.79-34.09,26.58a33.56,33.56,0,0,0,32.83,40.45h8.4a63.91,63.91,0,0,0,2.18,11.05,41.85,41.85,0,1,0,55.31,47.11,64,64,0,0,0,7.45.5h2.75a41.87,41.87,0,0,0,82.07,0h10.05a41.87,41.87,0,0,0,82.07,0h2.59a64,64,0,0,0,7.45-.5c5.45,29.24,40.07,45.68,68.19,24.85a33.54,33.54,0,0,0,10.37-12.76c11.81-25.45-1-51.16-23.2-59.15a64.81,64.81,0,0,0,2.68-12.23C444.23,437.38,456.4,409.86,438.11,386.78ZM238.85,135.49a4.2,4.2,0,0,1,5.93,0l0,0a4.2,4.2,0,0,1,0,5.93l0,0h0a4.19,4.19,0,0,1-5.92,0l0,0a4.2,4.2,0,0,1,0-5.93Zm-80-44.5a4.08,4.08,0,0,1,3.35-1.17,4.2,4.2,0,0,1,2.93,1.26l62.18,62.18h0l62.18,62.17a4.2,4.2,0,0,1,0,5.93l0,0a4.13,4.13,0,0,1-2.94,1.26,4.2,4.2,0,0,1-2.93-1.26L276.23,214h0L166.37,104.4h0L159,97a4.19,4.19,0,0,1-.27-5.92Zm6.78,34.86,87.24,87.24a79.75,79.75,0,0,1-57.15-16.26,83.78,83.78,0,0,1-7.46-6.62,79.61,79.61,0,0,1-22.88-64.36ZM137,301.83H388.43v75.42H137ZM86.76,410.76A16.75,16.75,0,0,1,103.52,394H413.57a16.76,16.76,0,1,1,0,33.51h-310A16.76,16.76,0,0,1,86.76,410.76Zm41.9,108.94a25.14,25.14,0,1,1,25.14-25.14,25.13,25.13,0,0,1-25.14,25.14Zm92.18,0A25.14,25.14,0,1,1,246,494.56a25.13,25.13,0,0,1-25.13,25.14Zm92.17,0a25.14,25.14,0,1,1,25.14-25.14h0A25.13,25.13,0,0,1,313,519.7Zm41.06-33.52a41.9,41.9,0,0,0-82.12,0H261.9a41.9,41.9,0,0,0-82.13,0h-2.59a48.54,48.54,0,0,1-7.71-.67,41.91,41.91,0,0,0-38.21-32.85,48.25,48.25,0,0,1-2.1-8.38H404.77a47.34,47.34,0,0,1-2.09,8.38,41.9,41.9,0,0,0-38.3,32.6,48.65,48.65,0,0,1-7.71.67Zm76.26,8.38a25.14,25.14,0,1,1-25.14-25.14h0A25.15,25.15,0,0,1,430.33,494.56Z" transform="translate(-70 -2.75)"/><path d="M202.46,310.13a42.49,42.49,0,0,1,6.53-.46c4.06,0,6.71.75,8.77,2.3,2.22,1.66,3.62,4.27,3.62,8,0,4.11-1.49,6.94-3.54,8.68-2.26,1.87-5.71,2.77-9.88,2.77a39.7,39.7,0,0,1-5.5-.32Zm4.84,17.47a10.56,10.56,0,0,0,1.68.09c4.39,0,7.27-2.39,7.27-7.51,0-4.45-2.59-6.79-6.76-6.79a10,10,0,0,0-2.19.19Z" transform="translate(-70 -2.75)"/><path d="M228.32,315.7l2.33,7.64c.26.91.56,2.07.77,2.89h.1c.22-.84.47-2,.69-2.9l1.92-7.63h5.16l-3.61,10.23c-2.23,6.18-3.72,8.64-5.47,10.2a8.67,8.67,0,0,1-4.66,2.12l-1-4.07a7.3,7.3,0,0,0,2.1-.82,5.51,5.51,0,0,0,2-1.94,1.32,1.32,0,0,0,.27-.7,2,2,0,0,0-.21-.8L223,315.7Z" transform="translate(-70 -2.75)"/><path d="M241.32,320.66c0-1.93-.06-3.57-.12-5h4.19l.22,2.15h.1a5.64,5.64,0,0,1,4.81-2.5c3.17,0,5.56,2.12,5.56,6.69v9.21h-4.84v-8.62c0-2-.71-3.38-2.46-3.38a2.62,2.62,0,0,0-2.45,1.83,3.54,3.54,0,0,0-.17,1.2v9h-4.84Z" transform="translate(-70 -2.75)"/><path d="M268.78,331.25l-.28-1.55h-.1a5.6,5.6,0,0,1-4.44,1.9,4.75,4.75,0,0,1-5-4.76c0-4,3.62-6,9.12-6v-.2c0-.83-.44-2-2.84-2a8.87,8.87,0,0,0-4.29,1.17l-.89-3.1a12.55,12.55,0,0,1,6-1.39c5.18,0,6.82,3.06,6.82,6.71v5.42a22.46,22.46,0,0,0,.25,3.77Zm-.58-7.36c-2.55,0-4.51.6-4.51,2.45a1.75,1.75,0,0,0,1.92,1.87,2.64,2.64,0,0,0,2.5-1.79,3.2,3.2,0,0,0,.09-.83Z" transform="translate(-70 -2.75)"/><path d="M276.71,320.66c0-1.93-.06-3.57-.13-5h4.09l.2,2.1h.1a5.41,5.41,0,0,1,4.69-2.45,4.4,4.4,0,0,1,4.26,2.66H290a6.55,6.55,0,0,1,2-1.89,5.52,5.52,0,0,1,2.95-.77c3,0,5.24,2.1,5.24,6.75v9.15h-4.7V322.8c0-2.25-.73-3.56-2.29-3.56a2.37,2.37,0,0,0-2.23,1.69,4.49,4.49,0,0,0-.17,1.22v9.1h-4.7v-8.72c0-2-.7-3.29-2.24-3.29a2.48,2.48,0,0,0-2.27,1.74,3.61,3.61,0,0,0-.18,1.22v9.05h-4.7Z" transform="translate(-70 -2.75)"/><path d="M309,311.38a2.56,2.56,0,1,1-2.56-2.42A2.4,2.4,0,0,1,309,311.38Zm-5,19.87V315.7h4.84v15.55Z" transform="translate(-70 -2.75)"/><path d="M324.39,330.86a11.44,11.44,0,0,1-4.33.72c-5,0-8.22-3.08-8.22-8,0-4.54,3.11-8.26,8.89-8.26a11.19,11.19,0,0,1,3.69.61l-.76,3.59a6.5,6.5,0,0,0-2.7-.49,4.37,4.37,0,0,0,.08,8.73,7.22,7.22,0,0,0,2.78-.51Z" transform="translate(-70 -2.75)"/><path d="M227.58,348v8.24h8V348h4.85v21.41h-4.85v-9h-8v9h-4.84V348Z" transform="translate(-70 -2.75)"/><path d="M259.69,361.43c0,5.68-4,8.28-8.19,8.28-4.53,0-8-3-8-8s3.31-8.24,8.31-8.24A7.55,7.55,0,0,1,259.69,361.43Zm-11.24.16c0,2.66,1.12,4.67,3.18,4.67,1.89,0,3.08-1.89,3.08-4.69,0-2.3-.88-4.65-3.07-4.65S248.45,359.29,248.45,361.59Z" transform="translate(-70 -2.75)"/><path d="M262.68,358.78c0-1.94-.06-3.57-.12-5h4.08l.21,2.11h.1a5.37,5.37,0,0,1,4.69-2.46,4.4,4.4,0,0,1,4.26,2.67H276a6.47,6.47,0,0,1,2-1.9,5.58,5.58,0,0,1,2.95-.77c3,0,5.24,2.1,5.24,6.75v9.15h-4.71v-8.44c0-2.25-.72-3.56-2.29-3.56A2.36,2.36,0,0,0,277,359a4.16,4.16,0,0,0-.17,1.23v9.09h-4.71v-8.71c0-2-.7-3.29-2.24-3.29a2.47,2.47,0,0,0-2.26,1.73,3.4,3.4,0,0,0-.18,1.23v9h-4.71Z" transform="translate(-70 -2.75)"/><path d="M293.72,363.14c.15,2,2.13,3,4.39,3a12.89,12.89,0,0,0,4.27-.66l.66,3.27a15,15,0,0,1-5.64,1c-5.26,0-8.29-3.07-8.29-7.92,0-3.95,2.47-8.32,7.84-8.32,5,0,6.94,3.92,6.94,7.77a9.71,9.71,0,0,1-.17,1.91Zm5.68-3.31c0-1.16-.51-3.15-2.71-3.15s-2.87,1.86-3,3.15Z" transform="translate(-70 -2.75)"/><path d="M134.76,418.79a13.74,13.74,0,0,1-5.38.92c-7,0-10.63-4-10.63-9.33,0-6.09,4.74-9.84,11-9.84a12.52,12.52,0,0,1,5.24.93l-.94,3.4a10.55,10.55,0,0,0-4.13-.8c-3.72,0-6.56,2.09-6.56,6.05,0,3.48,2.36,6,6.6,6a11.27,11.27,0,0,0,4.08-.71Z" transform="translate(-70 -2.75)"/><path d="M151.46,412.49c0,4.69-3.61,7.22-7.74,7.22s-7.54-2.6-7.54-6.94c0-4.17,3-7.16,7.84-7.16C148.45,405.61,151.46,408.49,151.46,412.49Zm-10.73.18c0,2.29,1.17,4,3.12,4,1.78,0,3.06-1.42,3.06-4,0-2-.92-4-3-4S140.73,410.63,140.73,412.67Z" transform="translate(-70 -2.75)"/><path d="M154.22,410.31c0-1.74-.05-3.19-.11-4.37h3.66l.18,1.9h.1a4.88,4.88,0,0,1,4.34-2.23,4.11,4.11,0,0,1,3.93,2.46h.05a5.83,5.83,0,0,1,1.87-1.73,5.14,5.14,0,0,1,2.78-.73c2.62,0,4.87,1.78,4.87,6.06v7.71h-4.22v-7.09c0-2.09-.78-3.19-2.22-3.19a2.26,2.26,0,0,0-2.12,1.54,3.79,3.79,0,0,0-.16,1.09v7.65h-4.23v-7.24c0-1.93-.77-3-2.17-3a2.38,2.38,0,0,0-2.17,1.6,3.13,3.13,0,0,0-.16,1.07v7.61h-4.22Z" transform="translate(-70 -2.75)"/><path d="M179.49,410.54c0-1.82-.05-3.35-.11-4.6h3.8l.2,2h.05a5.94,5.94,0,0,1,5-2.32c2.94,0,6.06,2.34,6.06,6.82,0,4.94-3.46,7.28-6.69,7.28a4.68,4.68,0,0,1-3.91-1.61h0v6.77h-4.38Zm4.38,2.8a5.24,5.24,0,0,0,0,.79,3,3,0,0,0,2.87,2.29c2,0,3.27-1.4,3.27-3.74,0-2-1.07-3.72-3.19-3.72a3,3,0,0,0-2.93,2.43,3.92,3.92,0,0,0-.07.68Z" transform="translate(-70 -2.75)"/><path d="M210.89,415c0,1.85.05,3.31.11,4.38h-3.8l-.19-2.06h-.1a5.07,5.07,0,0,1-4.55,2.39c-2.79,0-5.1-1.65-5.1-5.95v-7.82h4.38V413c0,2,.72,3.22,2.36,3.22a2.55,2.55,0,0,0,2.38-1.65,2.07,2.07,0,0,0,.13-.8v-7.82h4.38Z" transform="translate(-70 -2.75)"/><path d="M219.31,402v3.91h3.14v3.26h-3.14v4.44c0,1.65.32,2.51,1.75,2.51a5.23,5.23,0,0,0,1.34-.14l0,3.3a9,9,0,0,1-2.87.4,4.62,4.62,0,0,1-3.34-1.27,5.74,5.74,0,0,1-1.16-4V409.2h-1.85v-3.26h1.85V403Z" transform="translate(-70 -2.75)"/><path d="M233.3,419.38,233,418h-.1a5.3,5.3,0,0,1-4.13,1.67c-3,0-4.61-2-4.61-4.12,0-3.5,3.14-5.23,8.47-5.21v-.13c0-.6-.31-1.7-2.65-1.7a8.73,8.73,0,0,0-4,1.08l-.81-2.76a11.6,11.6,0,0,1,5.58-1.26c4.6,0,6.27,2.57,6.27,5.87v4.58a18.72,18.72,0,0,0,.22,3.32Zm-.5-6.29c-2.53,0-4.25.54-4.25,2.05,0,1,.7,1.54,1.78,1.54a2.53,2.53,0,0,0,2.39-1.67,2.7,2.7,0,0,0,.08-.75Z" transform="translate(-70 -2.75)"/><path d="M245.21,402v3.91h3.14v3.26h-3.14v4.44c0,1.65.33,2.51,1.75,2.51a5.17,5.17,0,0,0,1.34-.14l0,3.3a9.1,9.1,0,0,1-2.88.4,4.59,4.59,0,0,1-3.33-1.27,5.74,5.74,0,0,1-1.16-4V409.2h-1.86v-3.26H241V403Z" transform="translate(-70 -2.75)"/><path d="M255.56,402.15a2.35,2.35,0,1,1-2.34-2.14A2.16,2.16,0,0,1,255.56,402.15ZM251,419.38V405.94h4.38v13.44Z" transform="translate(-70 -2.75)"/><path d="M273.42,412.49c0,4.69-3.6,7.22-7.73,7.22s-7.54-2.6-7.54-6.94c0-4.17,3-7.16,7.84-7.16C270.41,405.61,273.42,408.49,273.42,412.49Zm-10.72.18c0,2.29,1.17,4,3.11,4s3.06-1.42,3.06-4c0-2-.91-4-3-4S262.7,410.63,262.7,412.67Z" transform="translate(-70 -2.75)"/><path d="M276.18,410.31c0-1.74-.05-3.19-.11-4.37h3.8l.2,2h.1a5.2,5.2,0,0,1,4.45-2.29c2.81,0,5.22,1.76,5.22,6v7.74h-4.38v-7.13c0-1.93-.73-3.15-2.39-3.15a2.55,2.55,0,0,0-2.38,1.7,2.72,2.72,0,0,0-.13,1v7.61h-4.38Z" transform="translate(-70 -2.75)"/><path d="M301.62,419.38l-.26-1.34h-.1a5.33,5.33,0,0,1-4.13,1.67c-3,0-4.61-2-4.61-4.12,0-3.5,3.14-5.23,8.47-5.21v-.13c0-.6-.31-1.7-2.65-1.7a8.7,8.7,0,0,0-4,1.08l-.81-2.76a11.55,11.55,0,0,1,5.57-1.26c4.61,0,6.27,2.57,6.27,5.87v4.58a19.73,19.73,0,0,0,.22,3.32Zm-.5-6.29c-2.54,0-4.25.54-4.25,2.05,0,1,.7,1.54,1.78,1.54A2.53,2.53,0,0,0,301,415a2.7,2.7,0,0,0,.08-.75Z" transform="translate(-70 -2.75)"/><path d="M308.93,399.71h4.37v19.67h-4.37Z" transform="translate(-70 -2.75)"/><path d="M322.94,401.1a41.37,41.37,0,0,1,6.28-.4c2.71,0,4.62.56,5.87,1.52a5.36,5.36,0,0,1,2.09,4.36,5.72,5.72,0,0,1-1.73,4.36c-1.52,1.38-3.74,2-6.51,2a9.42,9.42,0,0,1-1.66-.12v6.54h-4.34Zm4.34,8.39a7,7,0,0,0,1.65.14c2.36,0,3.92-1.07,3.92-3,0-1.73-1.34-2.66-3.59-2.66a11.61,11.61,0,0,0-2,.14Z" transform="translate(-70 -2.75)"/><path d="M339.61,410.5c0-2.19,0-3.44-.11-4.56h3.75l.14,2.66h.11a4.21,4.21,0,0,1,3.95-3,3.47,3.47,0,0,1,.93.08v4.05a5.9,5.9,0,0,0-1.24-.14c-1.8,0-2.85.91-3.1,2.19a5.29,5.29,0,0,0-.05.8v6.79h-4.38Z" transform="translate(-70 -2.75)"/><path d="M365,412.49c0,4.69-3.6,7.22-7.73,7.22s-7.54-2.6-7.54-6.94c0-4.17,3-7.16,7.84-7.16C361.94,405.61,365,408.49,365,412.49Zm-10.72.18c0,2.29,1.17,4,3.11,4s3.06-1.42,3.06-4c0-2-.91-4-3-4S354.23,410.63,354.23,412.67Z" transform="translate(-70 -2.75)"/><path d="M367.6,419.38c.06-.79.11-2.42.11-4V399.71h4.38v7.91h.06a5.24,5.24,0,0,1,4.47-2c3.44,0,6.17,2.57,6.13,6.86,0,4.88-3.47,7.24-6.74,7.24a5,5,0,0,1-4.48-2.3h0l-.17,2Zm4.49-6a3.87,3.87,0,0,0,.05.69,3,3,0,0,0,2.87,2.25c2,0,3.27-1.35,3.27-3.71,0-2-1.06-3.72-3.25-3.72a2.93,2.93,0,0,0-2.87,2.34,3.64,3.64,0,0,0-.07.76Z" transform="translate(-70 -2.75)"/><path d="M388.91,414c.15,1.62,2,2.46,4.1,2.46a12.27,12.27,0,0,0,4.08-.61l.6,2.91a13.94,13.94,0,0,1-5.27.93c-4.85,0-7.67-2.73-7.67-6.92a7,7,0,0,1,7.25-7.18c4.84,0,6.47,3.75,6.47,6.83a7,7,0,0,1-.16,1.58Zm5.48-3a2.52,2.52,0,0,0-2.62-2.61,2.91,2.91,0,0,0-2.91,2.61Z" transform="translate(-70 -2.75)"/><path id="path4208" class="cls-1" d="M288.22,39.75" transform="translate(-70 -2.75)"/><path id="path4209" class="cls-2" d="M283.2,13.12" transform="translate(-70 -2.75)"/><path id="path4210" class="cls-2" d="M285.14,62.63" transform="translate(-70 -2.75)"/><path id="path4211" class="cls-2" d="M281.24,86.33" transform="translate(-70 -2.75)"/><path id="path4212" class="cls-2" d="M280.18,105.12" transform="translate(-70 -2.75)"/><g id="svg_1" data-name="svg 1"><path id="path4181" class="cls-3" d="M224.07,35.93A109.47,109.47,0,0,1,343.7,170.32" transform="translate(-70 -2.75)"/><path id="path4190" class="cls-4" d="M229,9.27A135,135,0,0,1,370.21,168.16" transform="translate(-70 -2.75)"/><path id="path4196" class="cls-4" d="M227.26,58.79a86.06,86.06,0,0,1,94.05,105.66" transform="translate(-70 -2.75)"/><path id="path4197" width="509.669" height="540.219" class="cls-4" d="M231.28,82.47a61.84,61.84,0,0,1,67.58,75.92" transform="translate(-70 -2.75)"/><path id="path4198" class="cls-4" d="M232.43,101.25a43.28,43.28,0,0,1,47.31,53.15" transform="translate(-70 -2.75)"/></g></svg>